<svg xmlns="http://www.w3.org/2000/svg" viewBox="0 0 32 32">
  <!-- Sun -->
  <circle cx="12" cy="12" r="5" fill="#666" />
  <g stroke="#666" stroke-width="1.5" stroke-linecap="round">
    <line x1="12" y1="3" x2="12" y2="5" />
    <line x1="12" y1="19" x2="12" y2="21" />
    <line x1="3" y1="12" x2="5" y2="12" />
    <line x1="19" y1="12" x2="21" y2="12" />
    <line x1="5.4" y1="5.4" x2="6.8" y2="6.8" />
    <line x1="17.2" y1="17.2" x2="18.6" y2="18.6" />
    <line x1="5.4" y1="18.6" x2="6.8" y2="17.2" />
    <line x1="17.2" y1="6.8" x2="18.6" y2="5.4" />
  </g>
  <!-- Cloud -->
  <path d="M28 22H12c-2.8 0-5-2.2-5-5s2.2-5 5-5c0.3-2.5 2.5-4.5 5-4.5 1.8 0 3.4 1 4.2 2.5C22 10 23 10 24 11c2 1.5 2.5 3.5 2 5.5 1.5 0.5 2.5 1.8 2.5 3.5 0 1.1-0.5 2-0.5 2z" fill="#888" />
</svg>